<svg width="440" height="512" viewBox="0 0 440 512" fill="none" xmlns="http://www.w3.org/2000/svg">
<g clip-path="url(#clip0_6_128)">
<path d="M12.06 511.8C11.35 510.32 9.67001 510.34 8.50001 509.55C3.25001 505.97 0.0100097 501.28 0.0500097 494.68C0.0500097 487.02 0.0500097 479.35 0.0500097 471.68C0.0500097 466.54 3.35001 462.98 7.75001 463.12C12.15 463.26 15.02 466.54 15.09 471.53C15.18 478.19 15.22 484.86 15.09 491.53C15.01 495.37 16.57 496.87 20.43 496.85C40.43 496.75 60.43 496.75 80.43 496.85C84.66 496.85 85.94 495.09 85.91 491.15C85.81 473.323 85.81 455.5 85.91 437.68C85.91 434.41 84.98 433.41 81.67 433.43C60.85 433.57 40.03 433.57 19.21 433.43C15.81 433.43 14.73 434.57 15.11 437.73C15.2249 438.894 15.2249 440.066 15.11 441.23C15.0835 443.219 14.2679 445.116 12.8426 446.504C11.4173 447.892 9.49912 448.657 7.51 448.63C5.52088 448.603 3.62377 447.788 2.236 446.363C0.84823 444.937 0.0834856 443.019 0.110007 441.03C7.21961e-06 428.7 -0.0599897 416.37 0.16001 404.03C0.190059 401.678 0.799889 399.37 1.93545 397.309C3.07102 395.249 4.69724 393.501 6.67 392.22C9.5 390.34 10.05 388.22 10.04 385.22C9.97002 354.9 10.04 324.58 9.97001 294.22C9.97001 287.98 12.81 283.83 17.97 280.99C19.1347 280.37 20.4078 279.979 21.72 279.84C36.72 278.25 50.32 282.28 62.88 290.25C72.19 296.16 81.12 302.5 87.11 312.13C89.7552 316.173 91.1468 320.908 91.11 325.74C90.93 340.22 91.05 354.74 91.05 369.86C97.5775 367.498 104.227 365.489 110.97 363.84C120.14 361.67 129.24 359.19 138.42 357.1C140.72 356.58 141.42 355.66 141.35 353.49C141.27 345.16 141.23 336.83 141.35 328.49C141.35 326.08 140.21 324.94 138.42 323.81C112.42 307.44 93.86 284.75 81.6 256.74C81.54 256.59 81.37 256.46 81.35 256.31C79.59 244.62 72.92 240.66 61.45 242.76C56.88 243.59 53.69 239.63 53.95 235.01C54.2 230.73 56.66 228.08 60.83 228.01C109.51 226.54 149.08 204.62 184.38 173.12C202.77 156.72 218.53 138.12 230.2 116.32C232 112.97 233.38 109.4 235.08 106C236.91 102.33 239.56 99.66 244.08 100.62C248.82 101.62 249.69 104.97 250.08 109.52C252.59 137.63 257.78 165.03 275.02 188.47C287.71 205.73 305.12 215.02 326.19 217.97C331.33 218.69 334.19 222.19 333.82 226.17C333.37 230.59 329.95 233.11 324.52 232.97C323.175 233.051 321.826 232.923 320.52 232.59C315.99 230.96 313.92 232.18 312.68 237.14C309.523 249.174 304.774 260.732 298.56 271.51C295.69 276.63 291.7 278.22 287.56 276.01C283.23 273.68 282.14 269.31 285.04 264.01C290.832 253.535 295.393 242.424 298.63 230.9C299.28 228.55 299.63 226.75 296.63 225.34C273.28 214.63 258.74 195.81 248.8 172.81C243.611 160.5 239.876 147.626 237.67 134.45C231.95 142.45 226.84 149.97 220.99 156.92C190.51 193.11 154.16 220.92 108.69 235.74C104.14 237.22 99.4 238.1 94.78 239.37C93.36 239.76 91.62 239.69 92.78 242.5C106.04 275.59 126.71 302.15 159.48 317.84C184.53 329.84 209.27 327.84 233.48 314.95C245.093 308.751 255.675 300.79 264.85 291.35C266.57 289.6 268.1 287.35 270.73 286.95C274.24 286.35 277.45 286.95 279.26 290.47C280.136 291.998 280.473 293.776 280.217 295.519C279.961 297.261 279.128 298.868 277.85 300.08C269.75 308.75 260.92 316.6 250.73 322.72C247.16 324.87 245.73 327.24 245.95 331.46C246.42 337.942 246.42 344.449 245.95 350.93C245.55 355.71 247.55 356.93 251.7 357.93C263.46 360.643 275.153 363.643 286.78 366.93C299.014 370.407 309.979 377.354 318.35 386.93C319.218 388.037 320.013 389.199 320.73 390.41C324.553 385.6 327.978 380.486 330.97 375.12C334.2 369.74 338.78 368.04 342.86 370.59C346.74 373.02 347.23 377.71 344.25 382.9C340.567 389.411 336.371 395.617 331.7 401.46C330.43 403.03 329.95 404.24 330.82 406.32C334.52 415.09 335.76 424.23 336.29 433.82C336.82 443.41 337.48 452.97 338.65 462.5C339.48 469.22 337.65 472.5 332.17 473.91C256.33 473.91 180.483 473.88 104.63 473.82C103.35 473.82 101.9 473.47 101.08 474.95L100.93 494.84C99.66 496.05 100.15 497.59 100.15 499.03C99.28 505.75 93.84 508.49 89.05 511.8H12.06ZM157.06 333.97L157.12 333.86C155.65 334.93 156.12 336.53 156.12 337.95C156.12 346 156.12 354.05 156.17 362.11C155.23 367.2 151.62 369.63 147.06 370.84C139.06 372.95 131.06 374.79 123.06 376.84C113.01 379.46 102.65 381.11 93.5 386.57C90.84 388.16 90.3 389.32 93.05 391.13C99.2 395.19 101.26 401.04 101.19 408.22C101.02 425.02 101.19 441.84 101.19 458.65C102.35 460.44 104.19 459.76 105.74 459.76C176.633 459.76 247.523 459.76 318.41 459.76C319.96 459.76 321.8 460.46 322.97 458.67C322.33 450.74 321.26 442.81 321.14 434.87C320.73 408.22 305.27 387.74 279.62 380.79C266.7 377.29 253.62 374.3 240.71 370.84C233.88 369.01 231.16 365.52 230.96 358.84C230.77 352.35 230.88 345.84 230.86 339.36C230.86 333.53 230.86 333.56 225.49 335.47C202.82 343.54 180.37 343.08 158.15 333.69C157.53 333.08 157.2 333.19 157.04 333.97H157.06ZM84.06 403.73C83.01 402.57 81.61 402.87 80.31 402.87H20.81C19.51 402.87 18.11 402.58 17.05 403.72C13.15 407.95 15.89 413.06 15.18 417.72C16.04 419.18 17.48 418.8 18.75 418.8C39.83 418.8 60.9067 418.8 81.98 418.8C83.37 418.8 85.05 419.35 85.92 417.55C85.03 412.96 87.64 407.9 84.03 403.73H84.06ZM25.11 318.81C25.11 341.64 25.11 363.7 25.11 385.75C25.11 387.96 26.42 388.04 28.04 388.04C43.04 388.04 57.99 388.04 72.96 388.04C75.31 388.04 76.14 387.33 76.13 384.92C76.04 370.61 76.06 356.3 76.13 341.99C76.13 339.99 75.82 339.2 73.39 339.23C66.55 339.32 60.02 337.57 53.59 335.23C43.31 331.57 34.26 325.9 25.08 318.81H25.11ZM75.2 323.64C75.2 320.64 73.2 318.91 71.55 317.19C60.28 305.69 46.97 297.69 31.17 294.1C29.61 293.74 27.53 293.17 26.51 294.67C25.24 296.55 27.1 298.07 28.18 299.41C36.55 309.74 47.4 316.53 59.77 321C64.67 322.78 69.68 324.49 75.17 323.64H75.2Z" fill="#F7941D"/>
<path d="M346.06 157.9C344.74 146.42 343.49 134.9 339.57 123.9C328.57 129.66 322.1 127.2 318.8 115.38C315.08 102.08 306.74 94.28 293.47 90.84C284.27 88.46 280.68 80.78 284.47 73.43C286.29 69.92 289.41 68.16 292.97 67.01C296.53 65.86 300.27 64.88 303.97 62.57C295.626 53.7718 286.259 46.0034 276.07 39.43C256.462 26.533 234.03 18.5635 210.68 16.2C178.62 12.96 147.95 18.45 119.68 34.56C83.91 54.96 59.68 84.85 47.68 124.37C43.07 139.572 40.7874 155.385 40.91 171.27C41.1 199.74 40.98 228.27 40.91 256.7C40.91 263.85 35.53 267.64 29.85 264.61C28.6297 264.044 27.6013 263.134 26.8907 261.992C26.1802 260.85 25.8185 259.525 25.85 258.18C25.85 223.71 24.45 189.18 26.26 154.78C27.96 122.25 39.85 92.53 59.87 66.42C85.36 33.19 118.79 12.48 159.45 3.17001C165.18 1.85001 171.2 2.07 176.79 -0.0299988H210.79C217.91 2.62 225.54 2.65002 232.86 4.43002C263.14 11.78 289.18 26.56 311.38 48.21C314.77 51.52 315.82 50.52 316.93 46.82C317.74 44.13 318.66 41.47 319.69 38.82C321.69 33.82 325.43 31.03 330.75 30.98C336.07 30.93 339.75 33.87 341.86 38.75C342.603 40.5891 343.231 42.4728 343.74 44.39C346.89 55.52 353.99 62.69 365.12 65.88C366.87 66.38 368.6 66.94 370.29 67.6C375.68 69.71 378.67 73.71 378.73 78.76C378.79 83.81 375.85 87.95 370.52 90.08C367.14 91.43 363.65 92.49 360.31 93.9C358.182 94.8232 356.149 95.9519 354.24 97.27C350.12 100.09 348.06 102.92 350.49 108.73C358.87 128.73 361.44 149.91 361.64 171.41C361.82 191.21 361.64 211.02 361.64 230.82C361.745 232.643 361.549 234.471 361.06 236.23C359.88 239.82 357.72 241.89 353.83 241.83C349.94 241.77 347.17 240.11 346.67 235.83C346.67 211.243 346.67 186.657 346.67 162.07C346.9 160.74 347.26 159.17 346.06 157.9ZM330.9 104.13C336.13 91.72 343.98 83.81 356.21 78.79C343.68 74 335.93 66.02 331.03 53.66C325.97 66.04 317.97 73.9 305.73 79.04C318.16 83.9 325.97 91.78 330.9 104.16V104.13Z" fill="#F7941D"/>
<path d="M409.33 463.83C399.71 464.23 386.57 457 381.83 443.32C376.1 426.75 369.72 410.41 363.97 393.9C359.83 382.06 354.15 370.72 352.11 358.18C351.82 356.39 350.16 355.54 348.97 354.44C334.82 341.28 320.52 328.3 306.51 315C295.71 304.74 294.34 291.39 302.42 280C305.82 275.2 310.6 272.21 315.97 270.24C336.31 262.76 356.48 254.73 377.13 248.24C399.05 241.3 415.92 255.48 413.06 276.84C410.59 295.24 408.55 313.69 405.9 332.06C405.12 337.42 408.04 341.06 409.7 345.47C414.04 356.92 418.05 368.47 422.24 379.99C427.34 393.99 432.6 407.9 437.59 421.93C443.15 437.54 438.04 452.19 425.68 459.72C420.768 462.704 415.069 464.136 409.33 463.83ZM398.05 272.98C398.61 268.45 396.62 265.21 392.97 262.85C388.81 260.15 384.68 261.71 380.59 263.14C379.07 263.67 379.15 264.59 379.9 265.8C386.21 275.87 386.23 287.5 387.9 298.71C388.062 299.658 388.035 300.628 387.821 301.565C387.606 302.503 387.209 303.388 386.652 304.172C386.094 304.955 385.387 305.62 384.572 306.13C383.757 306.639 382.849 306.982 381.9 307.14C377.72 308.01 374.06 305.67 372.97 301.27C372.46 299.19 372.24 297.03 371.97 294.9C370.84 287.22 370.4 279.37 365.97 272.54C364.54 270.32 363.17 269.33 360.28 270.54C354.63 272.9 348.83 274.9 342.97 276.8C340.02 277.74 339.77 279.28 340.22 282.02C341.74 291.24 347.45 298.29 352.05 305.93C355.32 311.36 354.79 315.93 350.58 318.61C346.63 321.07 342.34 319.56 339.03 314.27C333.5 305.44 327.23 296.95 325.28 286.34C325.01 284.87 324.86 283.51 322.47 284.21C317.21 285.73 313.62 288.94 312.37 294.14C311.43 298.14 314.18 301.04 316.78 303.48C331.01 316.79 345.39 329.95 359.64 343.24C360.284 343.979 361.158 344.48 362.122 344.662C363.085 344.843 364.081 344.695 364.95 344.24C371.58 341.65 378.22 339.05 385.03 337.03C389.28 335.77 390.68 333.45 391.03 329.24C391.52 322.47 392.7 315.75 393.55 309.01C395.057 297.003 396.557 284.993 398.05 272.98ZM409.26 448.35C420.09 448.35 426.34 438.94 424 431.11C419.11 414.77 412.46 399.06 407 382.94C406.18 380.52 404.64 381.56 403.43 381.99C396.26 384.53 389.16 387.27 381.97 389.77C379.89 390.49 379.39 391.52 380.1 393.44C385.82 408.97 391.39 424.56 397.31 440.01C399.36 445.47 404.06 447.9 409.26 448.35ZM400.64 365.75C399.46 362.53 398.2 359.63 397.35 356.62C396.57 353.86 395.35 353.26 392.67 354.35C388.08 356.23 383.37 357.81 378.67 359.52C368.41 363.27 368.41 363.27 372.86 373.37C372.92 373.52 372.91 373.7 372.96 373.85C373.52 375.63 374.5 376.13 376.36 375.43C383.78 372.62 391.26 369.96 398.69 367.18C399.5 366.9 400.97 367.08 400.64 365.75Z" fill="#F7941D"/>
<path d="M101.06 474.95C101.88 473.47 103.33 473.82 104.61 473.82C180.463 473.82 256.31 473.85 332.15 473.91C330.24 475.45 327.98 474.71 325.9 474.71C252.94 474.757 179.987 474.757 107.04 474.71C105.04 474.76 103.05 474.9 101.06 474.95Z" fill="#F7941D"/>
<path d="M346.06 157.9C347.26 159.14 346.9 160.71 346.9 162.16C346.9 186.747 346.9 211.333 346.9 235.92C345.9 235.04 346 233.84 346 232.69C346.013 207.783 346.033 182.853 346.06 157.9Z" fill="#F7941D"/>
<path d="M100.13 499.03C100.13 497.59 99.6401 496.03 100.91 494.84C100.97 496.3 101.5 497.84 100.13 499.03Z" fill="#F7941D"/>
<path d="M101.08 458.68C106.74 458.73 112.39 458.82 118.08 458.82H316.37C318.53 458.82 320.7 458.74 322.86 458.7C321.69 460.49 319.86 459.79 318.3 459.79C247.413 459.79 176.523 459.79 105.63 459.79C104.08 459.79 102.24 460.47 101.08 458.68Z" fill="#F7941D"/>
<path d="M15.1799 417.71L85.9199 417.53C85.0499 419.33 83.3699 418.78 81.9799 418.78C60.8999 418.78 39.8233 418.78 18.7499 418.78C17.4799 418.79 16.0399 419.17 15.1799 417.71Z" fill="#F7941D"/>
<path d="M84.03 403.73H17.03C18.09 402.59 19.49 402.88 20.79 402.88H80.26C81.58 402.9 82.97 402.57 84.03 403.73Z" fill="#F7941D"/>
<path d="M157.1 333.9C157.1 341.56 157.1 349.22 157.02 356.9C157.02 358.69 157.48 360.6 156.11 362.17C156.11 354.11 156.05 346.06 156.06 338.01C156.07 336.53 155.63 334.9 157.1 333.9Z" fill="#F7941D"/>
<path d="M158.04 333.73L157.04 333.97C157.2 333.19 157.53 333.08 158.04 333.73Z" fill="#F7941D"/>
</g>
<defs>
<clipPath id="clip0_6_128">
<rect width="439.81" height="511.81" fill="white"/>
</clipPath>
</defs>
</svg>
